<?xml version="1.0" encoding="utf-8"?>
<!-- Generator: Adobe Illustrator 28.0.0, SVG Export Plug-In . SVG Version: 6.00 Build 0)  -->
<svg version="1.1" id="Layer_1" xmlns="http://www.w3.org/2000/svg" xmlns:xlink="http://www.w3.org/1999/xlink" x="0px" y="0px"
	 viewBox="0 0 400 212" style="enable-background:new 0 0 400 212;" xml:space="preserve">
<style type="text/css">
	.st0{fill:#48CFAE;}
</style>
<g>
	<path class="st0" d="M253.4,189.8c2,0,2.9-1.4,2.9-3.3v-4.9c0-2-0.8-3.3-2.9-3.3c-2.2,0-2.9,1.3-2.9,3.3v4.9
		C250.4,188.5,251.4,189.8,253.4,189.8z"/>
	<path class="st0" d="M223.7,178.6h-2.6v4.1h2.7c1.7,0,2.6-0.7,2.6-2C226.4,179.6,225.9,178.6,223.7,178.6z"/>
	<path class="st0" d="M271.2,180.6c0-1-0.5-2.1-2.7-2.1h-2.6v4.1h2.7C270.3,182.6,271.2,181.9,271.2,180.6z"/>
	<path class="st0" d="M235.9,178.6v4.1h2.7c1.7,0,2.6-0.7,2.6-2c0-1-0.5-2.1-2.7-2.1H235.9z"/>
	<circle class="st0" cx="111.7" cy="141.9" r="1.9"/>
	<circle class="st0" cx="112.8" cy="86.9" r="1.1"/>
	<circle class="st0" cx="268.7" cy="159.2" r="3.5"/>
	<circle class="st0" cx="196.4" cy="80.8" r="3.5"/>
	<circle class="st0" cx="136.6" cy="37.4" r="1.9"/>
	<circle class="st0" cx="142.3" cy="159.2" r="1.9"/>
	<circle class="st0" cx="6.6" cy="157.3" r="1.9"/>
	<circle class="st0" cx="140.5" cy="1.9" r="1.9"/>
	<circle class="st0" cx="265.2" cy="131.7" r="1.9"/>
	<circle class="st0" cx="194.5" cy="99.4" r="1.9"/>
	<circle class="st0" cx="369" cy="68" r="7.1"/>
	<circle class="st0" cx="354.2" cy="66.2" r="2.4"/>
	<path class="st0" d="M397.2,127.6c-1.4-0.7-2.9-0.7-4.2-0.1c-1.6-0.6-2.8-2.2-2.9-4.1c0.3-0.4,0.5-0.9,0.5-1.4
		c0-1.3-1.1-2.4-2.4-2.4c-1.3,0-2.4,1.1-2.4,2.4c0,1.3,1.1,2.4,2.4,2.4c0.1,0,0.3,0,0.4,0c1.5,0.8,2.4,2.6,2.2,4.5
		c0,0.2-0.1,0.5-0.1,0.7c-0.1,0.1-0.1,0.2-0.2,0.3c-0.2,0.4-0.3,0.7-0.4,1.1c0,0.2-0.1,0.4-0.1,0.6c-0.2,2,0.8,4,2.7,5
		c2.5,1.2,5.5,0.3,6.7-2.2C400.7,131.9,399.7,128.9,397.2,127.6z"/>
	<circle class="st0" cx="363.9" cy="191.5" r="2.4"/>
	<circle class="st0" cx="12.7" cy="98" r="2.4"/>
	<circle class="st0" cx="72.4" cy="9.9" r="5.1"/>
	<path class="st0" d="M374.4,117.5c-2.9-0.8-5.2-1.6-6.9-2.3c-6-0.1-10.9-5.1-10.9-11.1c0-4.9,3.1-9,7.5-10.5v-8.8
		c0-7.2-6.4-12.5-13.7-12.5c-7.8,0-13.7,5.4-13.7,12.5v30.4h-5.2c-0.5,0.8-1.1,2.1-1.6,4.3c0.1,1.4-0.6,2.7-1.8,3.3
		c-1.7,0.9-4,0.1-5-1.8c-0.4-0.7-0.5-1.4-0.5-2.1c-0.2-0.6-0.8-2.3-3.3-3.7h-7.5c9.5-21.9,17.5-39.9,26.4-60.4
		c1.7,0.9,4,0.8,5.6-0.5c1.2-1,1.8-2.4,1.8-3.8c1.2-1.3,3.1-1.7,4.9-1c0.2,0.4,0.6,0.8,1.1,1c1.2,0.5,2.6,0,3.1-1.2
		c0.5-1.2,0-2.6-1.2-3.1c-1.2-0.5-2.6,0-3.1,1.2c-0.1,0.1-0.1,0.2-0.1,0.4c-1.3,1-3.3,1.2-5,0.2c-0.2-0.1-0.4-0.2-0.6-0.4
		c-0.1-0.1-0.1-0.2-0.2-0.3c-0.3-0.3-0.6-0.6-0.9-0.8c-0.2-0.1-0.3-0.2-0.5-0.3c-0.3-0.2-0.6-0.3-0.9-0.4c0.5-1.1,1-2.3,1.5-3.4
		c0.1-0.3,0.3-0.7,0.4-1c0-0.1,0.1-0.2,0.1-0.2c0.8-1.8,0.8-3.2,0.8-4.4c0-0.6-0.1-1.3-0.2-1.9c0.4-0.8,0.9-1.2,1.1-1.3
		c0.4-0.3,0.8-0.6,1.2-1.1c1.4-1.9,1-4.5-0.9-5.9c-1.1-0.8-2.4-1-3.5-0.7c-1.6,0.3-2.9,0.4-3.9,0.5c-0.9-0.6-2-1.2-3-1.6
		c-0.2-0.1-0.3-0.1-0.5-0.2c-1.3-0.5-2.7-0.7-4.1-0.7c-5.2,0-10.3,3-12.3,7.8l-14.7,33.9c-6.4,1.3-13.1-2.2-15.5-8.6
		c-0.3-0.8-1-2.3-1.6-3.8c-0.1-1.4-0.6-2.8-1.2-4.1c0,0,0,0,0,0v0c-1.9-3.8-5.9-6.5-10.5-6.5c-6.3,0-11.5,5-11.7,11.3c0,0,0,0,0,0
		c0,0.3-0.1,0.6-0.1,0.9c-0.8,4.8-4.4,8.5-8.9,9.5c-11.6-22.4-35-37.7-62-37.7c-12.2,0-23.7,3.1-33.7,8.6c-1.3,0.5-2.7,0.8-4.2,0.8
		c-6.4,0-11.6-5.2-11.6-11.5c0-0.7,0.1-1.4,0.2-2.1c0.4-1,0.6-2,0.6-3.1c0-5-4.1-9.1-9.1-9.1s-9.1,4.1-9.1,9.1
		c0,4.9,3.8,8.9,8.7,9.1c0,0,0,0,0,0c0.3,0,0.6,0,0.9,0c6.2,0,11.2,5,11.2,11.2c0,2.3-0.7,4.4-1.9,6.2c-12.4,11.7-20.5,27.9-21.7,46
		c-1.6,2.3-4.6,3.1-7.1,1.8c-0.3-0.2-0.6-0.4-0.9-0.6c-0.3-0.4-0.7-0.7-1.2-0.9c-1.9-1-4.2-0.4-5.5,1.3c0,0,0,0-0.1-0.1
		c-0.1,0.2-0.1,0.3-0.2,0.5c0,0,0,0.1-0.1,0.1c-1.6,2.9-5.5,4-9.1,2.4V80c0-7.2-6.4-12.5-13.7-12.5c-1.7,0-3.4,0.3-4.9,0.8
		c-4.9-1.6-8.8-5.1-11-9.7c3.1-7.1,6.3-14.5,9.7-22.3c0.8-1.8,0.8-3.2,0.8-4.4c0-2.3-0.8-4.5-2-6.4c1-0.1,1.8-0.9,1.8-1.9
		c0-1.1-0.9-1.9-1.9-1.9c-0.9,0-1.6,0.6-1.9,1.4C73,20.6,69.4,19,65.9,19c-5.2,0-10.3,3-12.3,7.8l-6.8,15.7c-2.5,1-4.3,0.6-4.9,0.4
		c-0.7-0.3-1.5-0.4-2.3-0.4c-3.5,0-6.2,2.8-6.2,6.2c0,1.9,0.9,3.6,2.3,4.7c2,1.7,3.3,3.2,4.2,4.4c3.4,0.7,6,3.7,6,7.4
		c0,4.2-3.4,7.5-7.5,7.5c-1.5,0-2.9-0.4-4.1-1.2l-13.8,31.8c-1,0.2-1.6,0-1.9-0.1c-0.4-0.2-0.9-0.3-1.4-0.3c-2.1,0-3.8,1.7-3.8,3.8
		c0,1.2,0.5,2.2,1.4,2.9c0.9,0.8,1.5,1.5,2,2.1l-1.4,3.3c-1.2,2.6-2,6.2-2,7c0,3.5,1.4,6.8,3.7,9.2c-0.7,3.5-3.6,6.4-7.4,6.7
		c-0.5,0.1-1.1,0.1-1.6,0c-0.7-0.2-1.5-0.3-2.3-0.2c-3.6,0.4-6.3,3.6-5.9,7.2c0.4,3.6,3.6,6.3,7.2,5.9c3.5-0.4,6.1-3.4,5.9-6.9
		c0,0,0,0,0,0c0-0.2-0.1-0.4-0.1-0.6c-0.5-4.5,2.8-8.5,7.3-8.9c0.5-0.1,1-0.1,1.4,0c1,0.4,2,0.7,3.1,0.9c0.2,0.1,0.3,0.2,0.5,0.3
		c0-0.1,0-0.1,0-0.2c0.7,0.1,1.4,0.1,2.1,0.1h43.8v16.3c0,7.2,6,12.5,13.7,12.5s13.7-5.4,13.7-12.5v-16.3h2.6c3.2,0,6.1-1,8.4-2.7
		c0.4,1.4,1.6,2.4,3.1,2.4c1.8,0,3.3-1.4,3.3-3.2c0-1.7-1.2-3.1-2.9-3.2c0.9-1.7,1.5-3.7,1.5-5.8c0-1.1-0.2-2.2-0.5-3.2
		c1.9-0.5,3.9-0.8,6-0.8c2.3,0,4.5,0.4,6.7,1c6.2,17.3,19,31.4,35.4,39.3c-1,5.9-5.1,11.2-11.1,13.5c-1,0.4-2.1,0.7-3.1,0.8
		c-1.6,0-3.2,0.3-4.8,0.9c-0.3,0.1-0.6,0.3-1,0.4c-3.2-0.7-5.6-3.5-5.5-6.8c0-0.5,0.1-0.9,0.1-1.3c0.2-0.6,0.3-1.2,0.3-1.8
		c0-3-2.4-5.5-5.4-5.5c-3,0-5.5,2.4-5.5,5.4c0,2.9,2.3,5.3,5.1,5.5c0,0,0,0,0,0c0.2,0,0.4,0,0.5,0c3.7,0,6.7,3.1,6.7,6.8
		c0,0.1,0,0.1,0,0.2c-4,3.7-5.5,9.5-3.5,14.9c2.7,7.1,10.6,10.7,17.7,8.1c6.9-2.6,10.5-10.2,8.3-17.1c0,0,0.1,0,0.1,0
		c-0.2-0.4-0.4-0.8-0.5-1.3c-2.9-7.7,0.2-16.1,6.8-20.3c7.8,3,16.2,4.6,25,4.6c11,0,21.5-2.6,30.7-7.1c4.7-0.8,7,0.9,7.6,1.4
		c0.1,0.1,0.1,0.1,0.2,0.2c0.3,0.3,0.6,0.5,1,0.8c1,6.4-7,7-13.8,8.1c-14.1,2.4-24.4-4.2-34.3,6.9c-4.3,4.8-10.5,22.2-5.6,28.3
		c7.6,9.6,19.7,0.6,28.4-2.4c14.3-4.9,24.8-5.4,39.5-1.1c11.8,3.4,34.3,16.7,45.6,5.6c8.6-8.5,0.2-14-1.5-23.5
		c-2.5-14.1,3.6-16.8-13.2-18c-14.7-1.1-29,0.4-36-10.6c-0.1-0.4-0.3-0.9-0.5-1.3c-0.9-2-1.5-3.7-1.9-5.1
		c13-11.6,21.6-27.9,23.1-46.3c7.3,1.4,13.9,6.1,17.4,13.3c0.6,1.2,1,2.4,1.4,3.6l-0.3,0.6c-1.2,2.6-2,6.2-2,7
		c0,2.1,0.5,4.1,1.4,5.9c-1,3.7-4.5,6.3-8.4,6.1c-0.5,0-1-0.1-1.5-0.2c-0.7-0.3-1.5-0.5-2.3-0.5c-3.6-0.2-6.7,2.6-6.9,6.3
		c-0.2,3.6,2.6,6.7,6.3,6.9c3.5,0.2,6.5-2.5,6.9-6c0,0,0,0,0,0c0-0.2,0-0.4,0-0.7c0.2-4.5,4-8,8.5-7.8c0.3,0,0.5,0,0.8,0.1
		c2.4,2.1,5.7,3.4,9.4,3.4h43.8v16.3c0,7.2,6,12.5,13.7,12.5c1,0,1.9-0.1,2.8-0.2c3.4,1.1,5.6,4.6,4.9,8.2c-0.1,0.5-0.2,0.9-0.4,1.3
		c-0.3,0.5-0.6,1.1-0.7,1.8c-0.6,3,1.4,6,4.4,6.6c3,0.6,6-1.4,6.6-4.4c0.6-3-1.3-5.8-4.2-6.5c0,0,0,0,0,0c-0.2,0-0.4,0-0.6-0.1
		c-3.8-0.7-6.2-4.4-5.5-8.1c0-0.1,0.1-0.3,0.1-0.4c3.7-2.2,6.2-6,6.2-10.6v-11.8c3.1-8.8,8-10.3,9.4-10.6c1-0.1,2.1-0.4,3.1-0.9
		c4.1-2.1,5.6-7.2,3.5-11.2C378.9,119.5,376.8,118,374.4,117.5z M71.3,80v30.4H46.4C54,93,60.6,78,67.5,62.3c3,3,5.1,7,5.6,11.4
		C71.9,75.5,71.3,77.7,71.3,80z M110.2,113.6c-2.3-1.9-5.4-3.2-8.9-3.2h-0.7c-0.5,0.1-1.1,0.1-1.6,0h-0.3v-0.1
		c-0.4-0.1-0.8-0.3-1.2-0.6c-3.4-2.2-1.8-8,1.2-9.6c1.9-2.7,5.9-3.5,9.4-1.7c0.1,0,0.2,0.1,0.3,0.2c0.4,0.4,0.8,0.7,1.3,1
		c2.1,1.1,4.7,0.3,5.8-1.8c0,0,0,0,0,0c0.1-0.1,0.1-0.3,0.2-0.4c1.3-2.6,4.4-3.7,7-2.5c0,0.4,0,0.8,0,1.2c0,1.8,0.1,3.5,0.2,5.3
		C120.1,107,115.6,111.3,110.2,113.6z M147.2,99.4c-1.1,0-1.9-0.9-1.9-1.9s0.9-1.9,1.9-1.9c1,0,1.9,0.9,1.9,1.9
		S148.2,99.4,147.2,99.4z M176.6,46.1c2.1,0,3.8,1.7,3.8,3.8s-1.7,3.8-3.8,3.8c-2.1,0-3.8-1.7-3.8-3.8
		C172.8,47.9,174.5,46.1,176.6,46.1z M185.9,145.3c-2.4,0-4.4-2-4.4-4.4c0-2.4,2-4.4,4.4-4.4c2.4,0,4.4,2,4.4,4.4
		C190.3,143.3,188.3,145.3,185.9,145.3z M219.4,147.5c-1.1,0-1.9-0.9-1.9-1.9s0.9-1.9,1.9-1.9c1,0,1.9,0.9,1.9,1.9
		C221.3,146.6,220.5,147.5,219.4,147.5z M225.6,119.9c-0.7,3.3-4.1,5.4-7.5,4.6c-0.8-0.2-1.5-0.5-2.2-0.9c-0.6-0.4-2.8-1.4-6.4-0.4
		c-2,1.4-4.3,2.5-6.6,3.4c-0.4,0.3-0.7,0.3-0.8,0.3c-1.2,0.4-2.4,0.7-3.6,0.9c-0.3,3.8,2,7.4,5.7,8.5c0.2,0.1,0.4,0.1,0.6,0.2
		c0,0,0,0,0,0c3.3,1.2,5.1,4.7,4.1,8.1c-1.1,3.5-4.7,5.4-8.2,4.4c-3.5-1.1-5.4-4.7-4.4-8.2c0.2-0.8,0.6-1.5,1.1-2.1
		c0.2-0.5,0.4-0.9,0.6-1.4c1-3.4-0.2-7-2.9-9c-0.8,0.1-1.7,0.1-2.5,0.1c-16.8,0-30.4-13.6-30.4-30.4s13.6-30.4,30.4-30.4
		S223,81.2,223,98c0,3.8-0.7,7.5-2,10.9c0.6,1.5,1.6,3.4,3.4,5.9C225.5,116.2,226,118,225.6,119.9z M213.8,192.7h-6.5
		c-1.2,0-2.3-0.4-2.3-1.7v-13.8c0-0.9,0.8-1.7,1.9-1.7h6.6c0.9,0,1.7,0.7,1.7,1.6c0,0.9-0.8,1.5-1.7,1.5h-5.1v3.9h4.6
		c0.9,0,1.7,0.7,1.7,1.5c0,0.9-0.7,1.6-1.7,1.6h-4.6v4h5.3c0.9,0,1.7,0.7,1.7,1.5C215.5,192,214.7,192.7,213.8,192.7z M228.3,192.9
		c-0.6,0-1.1-0.3-1.4-0.8l-4.1-6.5h-1.7v5.6c0,0.9-0.8,1.6-1.7,1.6c-0.9,0-1.7-0.7-1.7-1.6v-14.1c0-1,0.9-1.8,1.9-1.8h4.3
		c4.6,0,6.1,2.6,6.1,5.2c0,2.4-1.3,4-3.4,4.7l3.4,5.1C230.6,191.6,229.4,192.9,228.3,192.9z M262.4,177.2c0-1,0.9-1.8,1.9-1.8h4.3
		c4.6,0,6.1,2.6,6.1,5.2c0,2.4-1.3,4-3.4,4.7l3.4,5.1c0.8,1.2-0.4,2.5-1.5,2.5c-0.6,0-1.1-0.3-1.4-0.8l-4.1-6.5h-1.7v5.6
		c0,0.9-0.8,1.6-1.7,1.6c-0.9,0-1.7-0.7-1.7-1.6L262.4,177.2L262.4,177.2z M247,181.7c0-3.5,1.8-6.4,6.4-6.4c4.6,0,6.4,2.9,6.4,6.4
		v4.9c0,3.6-2.1,6.5-6.4,6.5c-4.2,0-6.4-2.9-6.4-6.5V181.7z M227.9,109.1c0-2.1,1.7-3.8,3.8-3.8c2.1,0,3.8,1.7,3.8,3.8
		c0,2.1-1.7,3.8-3.8,3.8C229.6,112.9,227.9,111.2,227.9,109.1z M244.7,180.6c0,2.4-1.3,4-3.4,4.7l3.4,5.1c0.8,1.2-0.4,2.5-1.5,2.5
		c-0.6,0-1.1-0.3-1.4-0.8l-4.1-6.5h-1.7v5.6c0,0.9-0.8,1.6-1.7,1.6c-0.9,0-1.7-0.7-1.7-1.6v-14.1c0-1,0.9-1.8,1.9-1.8h4.3
		C243.2,175.4,244.7,178.1,244.7,180.6z M289.1,102.3c-0.3,0-0.6,0-0.9,0l0,0c-9.4,2.7-19.5-0.4-25.8-7.7c-0.2-10-2.5-19.5-6.5-28
		c2.6-2.6,6.4-4,10.3-3.4c1.1,0.2,2.1,0.5,3.1,0.9c0,0,0,0,0,0c1.8,1.1,3.9,1.7,6.2,1.7c2.3,0,4.5-0.7,6.4-1.9
		c7-2.2,14.6,1.5,17.3,8.4c0.3,0.9,0.6,1.8,0.7,2.7c3.1,2.9,5,7,5,11.5C304.8,95.2,297.8,102.3,289.1,102.3z M328.9,129.8
		c-1.1,0-1.9-0.9-1.9-1.9c0-1.1,0.9-1.9,1.9-1.9s1.9,0.9,1.9,1.9C330.8,128.9,330,129.8,328.9,129.8z"/>
	<circle class="st0" cx="378.9" cy="104.1" r="1.9"/>
</g>
</svg>
